<svg width="100" height="100" viewBox="0 0 100 100" fill="none" xmlns="http://www.w3.org/2000/svg">
<g clip-path="url(#clip0_23675_63)">
<rect width="100" height="100" rx="50" fill="url(#paint0_linear_23675_63)"/>
<mask id="mask0_23675_63" style="mask-type:alpha" maskUnits="userSpaceOnUse" x="0" y="0" width="100" height="100">
<rect width="100" height="100" rx="50" fill="#6725A8"/>
</mask>
<g mask="url(#mask0_23675_63)">
<path d="M26.3167 32.22V65.948C26.3167 67.2707 26.6474 68.2627 27.3087 68.924C27.9701 69.544 28.9827 69.854 30.3467 69.854H45.6607L45.9707 74.628C43.2014 74.8347 40.3907 74.9587 37.5387 75C34.6867 75.0413 31.8347 75.062 28.9827 75.062C25.8414 75.062 23.5887 74.2973 22.2247 72.768C20.8607 71.1973 20.1787 69.234 20.1787 66.878V32.22H26.3167ZM66.0326 31.414C69.7939 31.414 72.7699 32.1787 74.9606 33.708C77.1512 35.196 78.7219 37.5727 79.6726 40.838C80.6232 44.1033 81.0986 48.3607 81.0986 53.61C81.0986 58.8593 80.6232 63.1167 79.6726 66.382C78.7219 69.6473 77.1512 72.0447 74.9606 73.574C72.7699 75.062 69.7939 75.806 66.0326 75.806C62.3126 75.806 59.3366 75.062 57.1046 73.574C54.9139 72.0447 53.3432 69.6473 52.3926 66.382C51.4419 63.1167 50.9666 58.8593 50.9666 53.61C50.9666 48.3607 51.4419 44.1033 52.3926 40.838C53.3432 37.5727 54.9139 35.196 57.1046 33.708C59.3366 32.1787 62.3126 31.414 66.0326 31.414ZM65.9706 36.684C64.2759 36.684 62.8499 36.994 61.6926 37.614C60.5766 38.1927 59.6672 39.1433 58.9646 40.466C58.3032 41.7887 57.8072 43.5247 57.4766 45.674C57.1872 47.8233 57.0426 50.4687 57.0426 53.61C57.0426 56.71 57.1872 59.3553 57.4766 61.546C57.8072 63.6953 58.3032 65.4313 58.9646 66.754C59.6672 68.0767 60.5766 69.048 61.6926 69.668C62.8499 70.2467 64.2759 70.536 65.9706 70.536C67.7066 70.536 69.1532 70.2467 70.3106 69.668C71.4679 69.048 72.3979 68.0767 73.1006 66.754C73.8032 65.4313 74.2992 63.6953 74.5886 61.546C74.8779 59.3553 75.0226 56.71 75.0226 53.61C75.0226 50.4687 74.8779 47.8233 74.5886 45.674C74.2992 43.5247 73.8032 41.7887 73.1006 40.466C72.3979 39.1433 71.4679 38.1927 70.3106 37.614C69.1532 36.994 67.7066 36.684 65.9706 36.684Z" fill="white"/>
</g>
</g>
<defs>
<linearGradient id="paint0_linear_23675_63" x1="17" y1="6" x2="88.5" y2="93" gradientUnits="userSpaceOnUse">
<stop stop-color="#5F25A8"/>
<stop offset="1" stop-color="#8625A8"/>
</linearGradient>
<clipPath id="clip0_23675_63">
<rect width="100" height="100" fill="white"/>
</clipPath>
</defs>
</svg>
